<?xml version="1.0" encoding="utf-8"?>
<!-- Generator: Adobe Illustrator 25.2.1, SVG Export Plug-In . SVG Version: 6.00 Build 0)  -->
<svg version="1.1" id="Layer_1" xmlns="http://www.w3.org/2000/svg" xmlns:xlink="http://www.w3.org/1999/xlink" x="0px" y="0px"
	 viewBox="0 0 318.2 373.4" style="enable-background:new 0 0 318.2 373.4;" xml:space="preserve">
<style type="text/css">
	.st0{display:none;fill:#808184;}
	.st1{font-family:'SignPainter-HouseScriptSemibold';}
	.st2{font-size:134px;}
	.st3{fill:#BE1E2D;}
	.st4{fill:#231F20;}
	.st5{fill:url(#SVGID_1_);}
	.st6{fill:url(#SVGID_2_);}
	.st7{fill:url(#SVGID_3_);}
	.st8{fill:url(#SVGID_4_);}
	.st9{fill:#FFFFFF;}
</style>
<text transform="matrix(1 0 0 1 5.6064 473.1665)" class="st0 st1 st2">SuperDoc</text>
<g>
	
		<image style="overflow:visible;opacity:0.49;" width="1336" height="1542" xlink:href="232A1670938C6F91.png"  transform="matrix(0.24 0 0 0.24 -4.2465 5.0237)">
	</image>
	<g>
		<g>
			<path class="st3" d="M219,234.5c0,4.7,0,9.4,0.1,14.1c0,1.4-0.3,2-1.9,1.9c-3-0.1-3,0-3,2.9c0,2.9,0,2.9-3,2.9
				c-0.4,0-0.9,0-1.3,0c-1-0.1-1.2,0.3-1.2,1.2c0,3.5-0.1,3.6-3.7,3.5c-1.3,0-1.8,0.3-1.7,1.7c0.1,1.3,0.2,3.3-0.2,4
				c-0.5,0.5-2.5,0.3-3.7,0.3c-1.2,0-1.3,0.5-1.3,1.4c0.1,3.4,0.2,3.6-3.2,3.6c-3.4,0-3.3-0.1-3.2-3.1c0.1-1.5-0.4-1.9-1.9-1.9
				c-3.4,0.1-3.4,0-3.5-3.5c0-2.7,0.3-2.3-2.5-2.4c-0.1,0-0.3,0-0.4,0c-2.7,0-2.4,0.3-2.4-2.4c0-2.4,0-2.4-2.4-2.4c-3,0-3,0-3-3
				c0-0.1,0-0.1,0-0.2c0-2.6,0-2.6-2.6-2.6c-2.2,0-2.2,0-2.2-2.3c0-4.6,0-9.1,0-13.7c0-0.1,0.2-0.1,0.4-0.1c1.4,0.1,3.4,0.2,4-0.2
				c0.7-0.4,0.3-2.5,0.4-3.9c0-1,0.5-1.2,1.3-1.2c2,0,3.9,0,5.9-0.1c2.7,0,5.5,0.1,8.2,0.1c0.9,0,1.3,0.2,1.3,1.2c-0.1,1,0,2,0,3
				c0,0.7,0.2,1.1,1,1.1c5.4,0.1,4.3,0.2,4.5-3.6c0-0.1,0-0.3,0-0.4c-0.2-1.1,0.3-1.3,1.4-1.3c2.7,0.1,5.5,0,8.2-0.1
				c1.9,0,3.8,0.1,5.6,0.1c1.1,0,1.2,0.4,1.4,1.4c0.4,1.6-0.5,3.7,0.7,3.8C216.1,234.8,217.8,233.8,219,234.5z"/>
			<path class="st4" d="M145.5,135.6c-3.5,0-7.1-0.1-10.6,0c-1.3,0-1.6-0.4-1.6-1.6c0.1-7.2,0.1-14.3,0-21.5c0-1.4,0.4-1.7,1.7-1.7
				c7.1,0.1,14.2,0.1,21.3,0c1.5,0,1.8,0.4,1.8,1.8c-0.1,7.1-0.1,14.2,0,21.3c0,1.4-0.4,1.7-1.7,1.7
				C152.8,135.6,149.2,135.6,145.5,135.6C145.5,135.6,145.5,135.6,145.5,135.6z"/>
			<path class="st4" d="M232.1,123.1c0-3.4,0.1-6.8,0-10.2c-0.1-1.7,0.5-2,2.1-2c6.9,0.1,13.9,0.1,20.8,0c1.3,0,1.9,0.2,1.9,1.7
				c-0.1,7.1-0.1,14.2,0,21.3c0,1.5-0.5,1.8-1.8,1.8c-7-0.1-14-0.1-21.1,0c-1.6,0-1.9-0.5-1.9-1.9
				C232.2,130.2,232.1,126.6,232.1,123.1z"/>
			<g>
				<linearGradient id="SVGID_1_" gradientUnits="userSpaceOnUse" x1="332.938" y1="32.2988" x2="138.0988" y2="348.2087">
					<stop  offset="4.864170e-02" style="stop-color:#000000"/>
					<stop  offset="0.1572" style="stop-color:#0B1419"/>
					<stop  offset="0.5705" style="stop-color:#325E73"/>
					<stop  offset="0.8607" style="stop-color:#4B8CAB"/>
					<stop  offset="1" style="stop-color:#559EC1"/>
				</linearGradient>
				<path class="st5" d="M281.6,185.3c0,7.6,0,15.2-0.1,22.8c0,1.5,0.6,1.6,1.8,1.6c7,0,13.9,0,20.9-0.1c1.7,0,2,0.6,2,2.1
					c-0.1,19.6-0.1,39.3-0.1,58.9c0,11.8,0,23.6,0,35.4c0,2.4,0,2.4-2.5,2.4c-6.4,0-12.8,0-19.1,0c-2.9,0-2.9,0-2.9,2.8
					c0,6.6-0.1,13.2,0,19.8c0,2.2-0.5,2.1,2.1,2.1c6.8,0,13.6,0,20.4,0c1.4,0,2,0.2,2,1.9c-0.1,7.2-0.1,14.3,0,21.5
					c0,1-0.2,1.5-1.3,1.4c-0.4-0.1-0.9,0-1.3,0c-23,0-45.9,0-68.9,0c-2.8,0-2.5,0.3-2.5-2.4c0-6.8,0-13.6,0-20.4
					c0-1.5-0.4-1.9-1.9-1.9c-15.3,0.1-30.6,0-45.9,0c-1.2,0-1.7,0.1-1.7,1.6c0.1,7.1-0.1,14.2,0,21.3c0,1.6-0.5,1.9-2,1.9
					c-23.4,0-46.8,0-70.2,0c-1.6,0-1.9-0.5-1.9-2c0.1-6.8,0-13.6,0-20.4c0-2.4,0-2.4-2.3-2.4c-14.9,0-29.9,0-44.8,0
					c-2.3,0-2.3,0-2.3-2.2c0-6.7,0-13.3,0-20c0-2.4,0-2.4,2.3-2.4c6.9,0,13.8,0,20.7,0c1.3,0,1.9-0.2,1.9-1.7
					c-0.1-15.3-0.1-30.6,0-45.9c0-1.9-0.9-1.9-2.2-1.9c-14.9,0-29.8,0-44.8,0c-2.8,0-2.5,0.3-2.5-2.6c0-7.4,0.1-14.8,0.1-22.2l0,0
					c7.5,0,14.9,0,22.4,0c2.3,0,2.3,0,2.3-2.2c0-6.9-0.1-13.7-0.1-20.6c0-1.9,0-1.9,2.1-1.9c15,0,30,0,44.9,0c2.7,0,2.4,0.3,2.4-2.5
					c0-7.3,0-14.6,0-21.9c22.6,0,45.2,0,67.8,0C211.5,185.3,246.6,185.3,281.6,185.3z M182.8,229c-2,0-3.9,0.1-5.9,0.1
					c-0.9,0-1.3,0.2-1.3,1.2c-0.1,1.3,0.7,3.1-0.4,3.9c-0.9,0.6-2.6,0.2-4,0.2c-0.1,0-0.3,0-0.4,0.1c-0.7,0-1.3-0.1-2-0.1
					c-19.3,0-38.5,0-57.8,0c-2.7,0-2.4-0.3-2.4,2.5c0,14.6,0,29.1,0,43.7c0,3.3,0,3.3,3.3,3.3c55.8,0,111.6,0,167.3,0
					c2.6,0,2.4,0.5,2.4-2.5c0-14.9,0-29.8,0-44.8c0-2.3,0-2.3-2.4-2.3c-15.9,0-31.7,0-47.6,0c-4.2,0-8.4,0-12.6,0.1
					c-1.4,0-2.9,0.3-4.1-0.2c-1.6-0.7-0.5-2.5-0.7-3.8c-0.1-1-0.3-1.4-1.4-1.4c-1.9,0.1-3.8,0-5.6-0.1c0-5.9,0-11.9,0.1-17.8
					c0-1-0.1-1.6-1.4-1.6c-7.3,0.1-14.6,0-21.9,0c-1,0-1.4,0.3-1.4,1.4C182.8,217,182.5,223,182.8,229z"/>
				<linearGradient id="SVGID_2_" gradientUnits="userSpaceOnUse" x1="268.2464" y1="-7.6002" x2="73.4071" y2="308.3098">
					<stop  offset="4.507688e-02" style="stop-color:#000000"/>
					<stop  offset="9.508255e-02" style="stop-color:#000000"/>
					<stop  offset="1" style="stop-color:#559EC1"/>
				</linearGradient>
				<path class="st6" d="M108.7,36.5c0-7.4,0.1-14.8,0.1-22.2c0-2.2,0-2.2,2.2-2.2c46.7,0,93.5,0,140.2,0c9.5,0,19,0,28.5,0
					c1.6,0,2.1,0.4,2,2c-0.1,7.5,0,14.9,0,22.4c0.6,0.8,1.5,0.4,2.2,0.4c6.7,0,13.3,0,20,0c2.2,0,2.2,0,2.2,2.1
					c0,47.9,0,95.8,0,143.8c0,1.7-0.5,2-2.1,2c-7.5-0.1-14.9,0-22.4-0.1c0-6.2,0-12.3,0-18.5c0-14.5,0-29,0-43.4
					c0-19.8,0-39.7,0.1-59.5c0-1.6-0.5-1.9-2-1.9c-15.2,0.1-30.4,0.1-45.6,0c-1.5,0-2,0.4-1.9,1.9c0.1,7,0,14.1,0,21.1
					c0,1,0,1.8-1.4,1.8c-7.8-0.1-15.6-0.1-23.5-0.1l0,0c0-7.5,0-15.1,0.1-22.6c0-1.1-0.9-2.1-2-2.1c-23.3,0.1-46.7,0.1-70,0
					c-1.7,0-2,0.5-2,2.1c0.1,7,0,13.9,0.1,20.9c0,1.4-0.4,1.9-1.8,1.8c-2.2-0.1-4.3,0-6.5,0c-4.9,0-9.9,0.1-14.8,0
					c-1.4,0-1.9,0.4-1.7,1.7c0.1,0.4,0,0.9,0,1.3c0,31.9,0,63.8,0,95.7c-7.3,0-14.6,0-22,0c-2.4,0-2.4,0-2.4-2.5
					c0-19.4,0-38.8,0-58.3c0-28.3,0-56.5,0-84.8c0-2.3,0-2.3,2.4-2.3c6.6,0,13.2,0,19.8,0C107.2,37,108.1,37.4,108.7,36.5z"/>
				<linearGradient id="SVGID_3_" gradientUnits="userSpaceOnUse" x1="192.8189" y1="-54.1205" x2="-2.0204" y2="261.7894">
					<stop  offset="0" style="stop-color:#404041"/>
					<stop  offset="0.3765" style="stop-color:#496776"/>
					<stop  offset="0.7957" style="stop-color:#528FAC"/>
					<stop  offset="1" style="stop-color:#559EC1"/>
				</linearGradient>
				<path class="st7" d="M34.7,234.4c-7.7,0-15.5,0-23.2,0.1c-1.2,0-1.6-0.3-1.6-1.5c0.1-7.2,0.1-14.5,0-21.7c0-1.3,0.5-1.5,1.7-1.5
					c7.2,0,14.3,0.1,21.5,0c1.4,0,1.6,0.5,1.6,1.8C34.6,219.1,34.6,226.7,34.7,234.4L34.7,234.4z"/>
				<linearGradient id="SVGID_4_" gradientUnits="userSpaceOnUse" x1="262.6361" y1="-11.0603" x2="67.7968" y2="304.8496">
					<stop  offset="0" style="stop-color:#000000"/>
					<stop  offset="0.1073" style="stop-color:#05090B"/>
					<stop  offset="0.2966" style="stop-color:#122129"/>
					<stop  offset="0.5456" style="stop-color:#274959"/>
					<stop  offset="0.8415" style="stop-color:#447F9B"/>
					<stop  offset="1" style="stop-color:#559EC1"/>
				</linearGradient>
				<path class="st8" d="M207.3,86.1c0,7.8,0,15.6,0.1,23.4c0,1-0.2,1.4-1.3,1.4c-7.3,0-14.6-0.1-21.9,0c-1.3,0-1.4-0.6-1.4-1.6
					c0-5.7,0-11.4,0-17.1c0-1.4,0-2.8-0.1-4.1c-0.2-1.5,0.3-2,1.9-2c6.8,0.1,13.6,0.1,20.4,0.1C205.7,86.2,206.5,86.2,207.3,86.1
					L207.3,86.1z"/>
			</g>
		</g>
	</g>
</g>
<path class="st9" d="M141.9,127.8h-3.3c-0.6,0-1-0.4-1-1v-8.5c0-0.6,0.4-1,1-1h3.3c0.6,0,1,0.4,1,1v8.5
	C142.9,127.4,142.5,127.8,141.9,127.8z"/>
<path class="st9" d="M241,127.8h-3.3c-0.6,0-1-0.4-1-1v-8.5c0-0.6,0.4-1,1-1h3.3c0.6,0,1,0.4,1,1v8.5
	C242,127.4,241.5,127.8,241,127.8z"/>
<path class="st9" d="M182.5,249.5h-4.1c-0.6,0-1-0.4-1-1v-10.2c0-0.6,0.4-1,1-1h4.1c0.6,0,1,0.4,1,1v10.2
	C183.5,249,183,249.5,182.5,249.5z"/>
</svg>
